<svg width="14" height="14" viewBox="0 0 14 14" fill="none" xmlns="http://www.w3.org/2000/svg">
<path d="M12.8166 5.59676C12.7764 5.46703 12.6694 5.37249 12.5407 5.3529L8.92397 4.80194L7.30648 1.36635C7.24893 1.24404 7.1301 1.16663 7.00001 1.16663C6.8699 1.16663 6.75109 1.24404 6.69351 1.36635L5.07595 4.80194L1.4593 5.3529C1.33058 5.37249 1.2236 5.46703 1.1834 5.59674C1.14318 5.72647 1.17673 5.86886 1.2699 5.96405L3.88687 8.6383L3.26917 12.4144C3.24716 12.5489 3.29989 12.6847 3.40514 12.7649C3.46468 12.8102 3.5352 12.8333 3.60607 12.8333C3.66048 12.8333 3.71508 12.8197 3.76507 12.7921L6.99999 11.0093L10.2348 12.7921C10.3499 12.8556 10.4895 12.845 10.5947 12.7649C10.7 12.6847 10.7527 12.5488 10.7307 12.4144L10.1128 8.6383L12.7301 5.96402C12.8232 5.86886 12.8568 5.72647 12.8166 5.59676Z" fill="#FFA800"/>
</svg>
